# xmcd
#
# Track frame offsets: 
#        150
#        14793
#        25154
#        41860
#        51630
#        60121
#        75804
#        92856
#        115994
#        133787
#        148632
#        165485
#        184554
#        203195
#        207140
#        222892
#        244191
#        263661
#        278573
#        295341
#        310376
#
# Disc length: 4308 seconds
#
# Revision: 0
# Processed by: cddbd v1.5.2PL0 Copyright (c) Steve Scherf et al.
# Submitted via: ExactAudioCopyFreeDBPlugin 1.0
#
DISCID=3310d215
DTITLE=Mississippi John Hurt - Live At Oberlin College 4-15-65
DYEAR=1965
DGENRE=Blues
TTITLE0=Candy Man
TTITLE1=My Creole Belle
TTITLE2=Make Me A Pallet On Your Floor
TTITLE3=Shake That Thing
TTITLE4=I'm Satisfied
TTITLE5=Salty Dog
TTITLE6=Nobody's Business But Mine
TTITLE7=The Angels Laid Him Away
TTITLE8=Casey Jones (Talkin' Casey)
TTITLE9=Baby, What's Wrong With You
TTITLE10=Lonesome Blues
TTITLE11=Rich Woman Blues
TTITLE12=Trouble I Had All My Days
TTITLE13=C-H-I-C-K-E-N Blues
TTITLE14=Coffee Blues
TTITLE15=Monday Mornin' Blues
TTITLE16=Frankie And Albert
TTITLE17=Talking Casey
TTITLE18=Here I Am. Oh Lord Send Me
TTITLE19=Hard Times In The Old Town Tonight
TTITLE20=Spike Driver Blues
EXTD=
EXTT0=
EXTT1=
EXTT2=
EXTT3=
EXTT4=
EXTT5=
EXTT6=
EXTT7=
EXTT8=
EXTT9=
EXTT10=
EXTT11=
EXTT12=
EXTT13=
EXTT14=
EXTT15=
EXTT16=
EXTT17=
EXTT18=
EXTT19=
EXTT20=
PLAYORDER=
